<svg id="Layer_1" data-name="Layer 1" xmlns="http://www.w3.org/2000/svg" viewBox="0 0 818 787"><defs><style>.cls-1{fill:red;}.cls-2{fill:#d4145a;}</style></defs><rect class="cls-1" x="231.5" y="20.5" width="32" height="756"/><path d="M807,128V883H776V128h31m1-1H775V884h33V127Z" transform="translate(-544 -107)"/><rect class="cls-1" x="569.5" y="20.5" width="32" height="756"/><path d="M1145,128V883h-31V128h31m1-1h-33V884h33V127Z" transform="translate(-544 -107)"/><rect class="cls-1" x="930.79" y="296.99" width="32" height="756" transform="translate(-280.84 1508.56) rotate(-89.48)"/><path d="M569.45,656l755,6.91-.28,31-755-6.9.29-31m-1-1-.3,33,757,6.92.3-33-757-6.92Z" transform="translate(-544 -107)"/><rect class="cls-1" x="933.88" y="-40.99" width="32" height="756" transform="translate(60.19 1176.76) rotate(-89.48)"/><path d="M572.54,318.06l755,6.9-.28,31-755-6.91.29-31m-1-1-.31,33,757,6.92.3-33-757-6.92Z" transform="translate(-544 -107)"/><polygon points="67.28 43.05 90.86 26.7 200.13 187.42 176.54 203.77 67.28 43.05"/><path d="M634.73,134.4l108.7,159.89-22.76,15.78L612,150.18l22.76-15.78M635,133l-24.41,16.92L720.41,311.47l24.41-16.92L635,133Z" transform="translate(-544 -107)"/><polygon points="59 178.64 186.98 32.68 208.4 51.83 80.42 197.79 59 178.64"/><path d="M731,140.39l20.68,18.48L624.38,304.08,603.71,285.6,731,140.39m-.08-1.42L602.3,285.68l22.16,19.82L753.1,158.78,730.94,139Z" transform="translate(-544 -107)"/><polygon points="67.28 43.05 90.86 26.7 200.13 187.42 176.54 203.77 67.28 43.05"/><path d="M634.73,134.4l108.7,159.89-22.76,15.78L612,150.18l22.76-15.78M635,133l-24.41,16.92L720.41,311.47l24.41-16.92L635,133Z" transform="translate(-544 -107)"/><polygon points="59 178.64 186.98 32.68 208.4 51.83 80.42 197.79 59 178.64"/><path d="M731,140.39l20.68,18.48L624.38,304.08,603.71,285.6,731,140.39m-.08-1.42L602.3,285.68l22.16,19.82L753.1,158.78,730.94,139Z" transform="translate(-544 -107)"/><path class="cls-2" d="M950,426a80,80,0,1,1-80,80,80.09,80.09,0,0,1,80-80m0-20a100,100,0,1,0,100,100A100,100,0,0,0,950,406Z" transform="translate(-544 -107)"/><polygon points="618.91 615.15 642.49 598.8 751.76 759.52 728.18 775.87 618.91 615.15"/><path d="M1186.36,706.5l108.71,159.89-22.76,15.78L1163.6,722.27l22.76-15.77m.26-1.4L1162.22,722l109.83,161.55,24.4-16.92L1186.62,705.1Z" transform="translate(-544 -107)"/><polygon points="610.64 750.74 738.61 604.78 760.03 623.93 632.05 769.89 610.64 750.74"/><path d="M1282.66,712.49,1303.33,731,1176,876.18l-20.67-18.48,127.32-145.21m-.09-1.42L1153.93,857.78l22.17,19.82,128.63-146.72-22.16-19.81Z" transform="translate(-544 -107)"/><path class="cls-2" d="M1262,425a80,80,0,1,1-80,80,80.09,80.09,0,0,1,80-80m0-20a100,100,0,1,0,100,100,100,100,0,0,0-100-100Z" transform="translate(-544 -107)"/><polygon points="349.91 28.15 373.49 11.8 482.76 172.52 459.18 188.87 349.91 28.15"/><path d="M917.36,119.5l108.71,159.89-22.76,15.78L894.6,135.27l22.76-15.77m.26-1.4L893.22,135l109.83,161.55,24.4-16.92L917.62,118.1Z" transform="translate(-544 -107)"/><polygon points="341.64 163.74 469.61 17.78 491.03 36.93 363.05 182.89 341.64 163.74"/><path d="M1013.66,125.49,1034.33,144,907,289.18,886.34,270.7l127.32-145.21m-.09-1.42L884.93,270.78,907.1,290.6l128.63-146.72-22.16-19.81Z" transform="translate(-544 -107)"/><polygon points="66.91 336.15 90.49 319.8 199.76 480.52 176.18 496.87 66.91 336.15"/><path d="M634.36,427.5,743.07,587.39l-22.76,15.78L611.6,443.27l22.76-15.77m.26-1.4L610.22,443,720.05,604.57l24.4-16.92L634.62,426.1Z" transform="translate(-544 -107)"/><polygon points="58.64 471.74 186.61 325.78 208.03 344.93 80.05 490.89 58.64 471.74"/><path d="M730.66,433.49,751.33,452,624,597.18,603.34,578.7,730.66,433.49m-.09-1.42L601.93,578.78,624.1,598.6,752.73,451.88l-22.16-19.81Z" transform="translate(-544 -107)"/><path class="cls-2" d="M644,714a80,80,0,1,1-80,80,80.09,80.09,0,0,1,80-80m0-20A100,100,0,1,0,744,794,100,100,0,0,0,644,694Z" transform="translate(-544 -107)"/><path class="cls-2" d="M1254,127a80,80,0,1,1-80,80,80.09,80.09,0,0,1,80-80m0-20a100,100,0,1,0,100,100,100,100,0,0,0-100-100Z" transform="translate(-544 -107)"/><polygon points="339.91 625.15 363.49 608.8 472.76 769.52 449.18 785.87 339.91 625.15"/><path d="M907.36,716.5l108.71,159.89-22.76,15.78L884.6,732.27l22.76-15.77m.26-1.4L883.22,732,993.05,893.57l24.4-16.92L907.62,715.1Z" transform="translate(-544 -107)"/><polygon points="331.64 760.74 459.61 614.78 481.03 633.93 353.05 779.89 331.64 760.74"/><path d="M1003.66,722.49,1024.33,741,897,886.18,876.34,867.7l127.32-145.21m-.09-1.42L874.93,867.78,897.1,887.6l128.63-146.72-22.16-19.81Z" transform="translate(-544 -107)"/></svg>